<svg version="1.1" xmlns="http://www.w3.org/2000/svg" viewBox="0 0 758.2607421875 758.1129455566406" width="2274.7822265625" height="2274.338836669922">
  <!-- svg-source:excalidraw -->
  
  <defs>
    <style>
      @font-face {
        font-family: "Virgil";
        src: url("https://excalidraw.com/Virgil.woff2");
      }
      @font-face {
        font-family: "Cascadia";
        src: url("https://excalidraw.com/Cascadia.woff2");
      }
    </style>
  </defs>
  <g stroke-linecap="round" transform="translate(10 10) rotate(0 368.5889892578125 368.5889892578125)"><path d="M368.59 0 C392.37 -6.01, 419.17 2.63, 443.68 7.73 C468.18 12.83, 492.67 20.61, 515.62 30.6 C538.57 40.58, 560.96 53.19, 581.39 67.64 C601.83 82.09, 621.18 98.99, 638.24 117.3 C655.31 135.61, 670.8 156.1, 683.78 177.51 C696.76 198.91, 707.75 222.13, 716.1 245.72 C724.44 269.32, 730.48 294.29, 733.84 319.1 C737.2 343.9, 738.03 369.58, 736.26 394.54 C734.5 419.51, 730.08 444.82, 723.26 468.9 C716.45 492.99, 706.97 516.86, 695.39 539.06 C683.81 561.25, 669.66 582.69, 653.81 602.06 C637.95 621.43, 619.73 639.54, 600.26 655.27 C580.8 671, 559.27 685.02, 537 696.45 C514.74 707.89, 490.8 717.23, 466.68 723.89 C442.55 730.55, 417.22 734.81, 392.24 736.42 C367.26 738.02, 341.59 737.04, 316.81 733.52 C292.02 730.01, 267.09 723.81, 243.55 715.32 C220 706.83, 196.85 695.68, 175.53 682.57 C154.21 669.46, 133.82 653.84, 115.61 636.66 C97.41 619.48, 80.63 600.03, 66.31 579.5 C51.98 558.97, 39.52 536.51, 29.68 513.5 C19.84 490.48, 12.21 465.95, 7.27 441.41 C2.32 416.88, -0.15 391.31, 0.01 366.28 C0.16 341.25, 2.96 315.71, 8.21 291.24 C13.46 266.76, 21.4 242.33, 31.52 219.44 C41.65 196.55, 54.4 174.25, 68.98 153.9 C83.56 133.55, 100.58 114.31, 119 97.36 C137.42 80.42, 158 65.05, 179.49 52.21 C200.97 39.36, 224.26 28.51, 247.91 20.32 C271.56 12.12, 301.28 6.42, 321.39 3.03 C341.5 -0.35, 360.72 -0.72, 368.59 0 C376.46 0.72, 368.59 1.23, 368.59 7.37 M368.59 0 C392.37 -6.01, 419.17 2.63, 443.68 7.73 C468.18 12.83, 492.67 20.61, 515.62 30.6 C538.57 40.58, 560.96 53.19, 581.39 67.64 C601.83 82.09, 621.18 98.99, 638.24 117.3 C655.31 135.61, 670.8 156.1, 683.78 177.51 C696.76 198.91, 707.75 222.13, 716.1 245.72 C724.44 269.32, 730.48 294.29, 733.84 319.1 C737.2 343.9, 738.03 369.58, 736.26 394.54 C734.5 419.51, 730.08 444.82, 723.26 468.9 C716.45 492.99, 706.97 516.86, 695.39 539.06 C683.81 561.25, 669.66 582.69, 653.81 602.06 C637.95 621.43, 619.73 639.54, 600.26 655.27 C580.8 671, 559.27 685.02, 537 696.45 C514.74 707.89, 490.8 717.23, 466.68 723.89 C442.55 730.55, 417.22 734.81, 392.24 736.42 C367.26 738.02, 341.59 737.04, 316.81 733.52 C292.02 730.01, 267.09 723.81, 243.55 715.32 C220 706.83, 196.85 695.68, 175.53 682.57 C154.21 669.46, 133.82 653.84, 115.61 636.66 C97.41 619.48, 80.63 600.03, 66.31 579.5 C51.98 558.97, 39.52 536.51, 29.68 513.5 C19.84 490.48, 12.21 465.95, 7.27 441.41 C2.32 416.88, -0.15 391.31, 0.01 366.28 C0.16 341.25, 2.96 315.71, 8.21 291.24 C13.46 266.76, 21.4 242.33, 31.52 219.44 C41.65 196.55, 54.4 174.25, 68.98 153.9 C83.56 133.55, 100.58 114.31, 119 97.36 C137.42 80.42, 158 65.05, 179.49 52.21 C200.97 39.36, 224.26 28.51, 247.91 20.32 C271.56 12.12, 301.28 6.42, 321.39 3.03 C341.5 -0.35, 360.72 -0.72, 368.59 0 C376.46 0.72, 368.59 1.23, 368.59 7.37" stroke="none" stroke-width="0" fill="white"></path><path d="M368.59 0 C392.37 -6.01, 419.17 2.63, 443.68 7.73 C468.18 12.83, 492.67 20.61, 515.62 30.6 C538.57 40.58, 560.96 53.19, 581.39 67.64 C601.83 82.09, 621.18 98.99, 638.24 117.3 C655.31 135.61, 670.8 156.1, 683.78 177.51 C696.76 198.91, 707.75 222.13, 716.1 245.72 C724.44 269.32, 730.48 294.29, 733.84 319.1 C737.2 343.9, 738.03 369.58, 736.26 394.54 C734.5 419.51, 730.08 444.82, 723.26 468.9 C716.45 492.99, 706.97 516.86, 695.39 539.06 C683.81 561.25, 669.66 582.69, 653.81 602.06 C637.95 621.43, 619.73 639.54, 600.26 655.27 C580.8 671, 559.27 685.02, 537 696.45 C514.74 707.89, 490.8 717.23, 466.68 723.89 C442.55 730.55, 417.22 734.81, 392.24 736.42 C367.26 738.02, 341.59 737.04, 316.81 733.52 C292.02 730.01, 267.09 723.81, 243.55 715.32 C220 706.83, 196.85 695.68, 175.53 682.57 C154.21 669.46, 133.82 653.84, 115.61 636.66 C97.41 619.48, 80.63 600.03, 66.31 579.5 C51.98 558.97, 39.52 536.51, 29.68 513.5 C19.84 490.48, 12.21 465.95, 7.27 441.41 C2.32 416.88, -0.15 391.31, 0.01 366.28 C0.16 341.25, 2.96 315.71, 8.21 291.24 C13.46 266.76, 21.4 242.33, 31.52 219.44 C41.65 196.55, 54.4 174.25, 68.98 153.9 C83.56 133.55, 100.58 114.31, 119 97.36 C137.42 80.42, 158 65.05, 179.49 52.21 C200.97 39.36, 224.26 28.51, 247.91 20.32 C271.56 12.12, 301.28 6.42, 321.39 3.03 C341.5 -0.35, 360.72 -0.72, 368.59 0 C376.46 0.72, 368.59 1.23, 368.59 7.37 M368.59 0 C392.37 -6.01, 419.17 2.63, 443.68 7.73 C468.18 12.83, 492.67 20.61, 515.62 30.6 C538.57 40.58, 560.96 53.19, 581.39 67.64 C601.83 82.09, 621.18 98.99, 638.24 117.3 C655.31 135.61, 670.8 156.1, 683.78 177.51 C696.76 198.91, 707.75 222.13, 716.1 245.72 C724.44 269.32, 730.48 294.29, 733.84 319.1 C737.2 343.9, 738.03 369.58, 736.26 394.54 C734.5 419.51, 730.08 444.82, 723.26 468.9 C716.45 492.99, 706.97 516.86, 695.39 539.06 C683.81 561.25, 669.66 582.69, 653.81 602.06 C637.95 621.43, 619.73 639.54, 600.26 655.27 C580.8 671, 559.27 685.02, 537 696.45 C514.74 707.89, 490.8 717.23, 466.68 723.89 C442.55 730.55, 417.22 734.81, 392.24 736.42 C367.26 738.02, 341.59 737.04, 316.81 733.52 C292.02 730.01, 267.09 723.81, 243.55 715.32 C220 706.83, 196.85 695.68, 175.53 682.57 C154.21 669.46, 133.82 653.84, 115.61 636.66 C97.41 619.48, 80.63 600.03, 66.31 579.5 C51.98 558.97, 39.52 536.51, 29.68 513.5 C19.84 490.48, 12.21 465.95, 7.27 441.41 C2.32 416.88, -0.15 391.31, 0.01 366.28 C0.16 341.25, 2.96 315.71, 8.21 291.24 C13.46 266.76, 21.4 242.33, 31.52 219.44 C41.65 196.55, 54.4 174.25, 68.98 153.9 C83.56 133.55, 100.58 114.31, 119 97.36 C137.42 80.42, 158 65.05, 179.49 52.21 C200.97 39.36, 224.26 28.51, 247.91 20.32 C271.56 12.12, 301.28 6.42, 321.39 3.03 C341.5 -0.35, 360.72 -0.72, 368.59 0 C376.46 0.72, 368.59 1.23, 368.59 7.37" stroke="#000000" stroke-width="1" fill="none"></path></g><g stroke-linecap="round"><g transform="translate(698.378173828125 558.4571838378906) rotate(0 -113.8594970703125 88.39794921875)"><path d="M0 0 C-37.95 29.47, -189.77 147.33, -227.72 176.8 M0 0 C-37.95 29.47, -189.77 147.33, -227.72 176.8" stroke="#000000" stroke-width="1" fill="none"></path></g></g><g stroke-linecap="round"><g transform="translate(714.546142578125 528.4969787597656) rotate(0 -156.1685791015625 109.49908447265625)"><path d="M0 0 C-52.06 36.5, -260.28 182.5, -312.34 219 M0 0 C-52.06 36.5, -260.28 182.5, -312.34 219" stroke="#000000" stroke-width="1" fill="none"></path></g></g><g stroke-linecap="round"><g transform="translate(354.1171875 744.6896057128906) rotate(0 152.5081787109375 -65.80239868164062)"><path d="M0 0 C50.84 -21.93, 254.18 -109.67, 305.02 -131.6 M0 0 C50.84 -21.93, 254.18 -109.67, 305.02 -131.6" stroke="#000000" stroke-width="1" fill="none"></path></g></g><g stroke-linecap="round"><g transform="translate(287.69189453125 732.9292297363281) rotate(0 195.2430419921875 -70.86007690429688)"><path d="M0 0 C65.08 -23.62, 325.41 -118.1, 390.49 -141.72 M0 0 C65.08 -23.62, 325.41 -118.1, 390.49 -141.72" stroke="#000000" stroke-width="1" fill="none"></path></g></g><g stroke-linecap="round"><g transform="translate(242.477783203125 715.2363586425781) rotate(0 199.8155517578125 -39.9827880859375)"><path d="M0 0 C66.61 -13.33, 333.03 -66.64, 399.63 -79.97 M0 0 C66.61 -13.33, 333.03 -66.64, 399.63 -79.97" stroke="#000000" stroke-width="1" fill="none"></path></g></g><g stroke-linecap="round"><g transform="translate(331.21630859375 739.7911682128906) rotate(0 199.86572265625 -128.939453125)"><path d="M0 0 C66.62 -42.98, 333.11 -214.9, 399.73 -257.88 M0 0 C66.62 -42.98, 333.11 -214.9, 399.73 -257.88" stroke="#000000" stroke-width="1" fill="none"></path></g></g><g stroke-linecap="round"><g transform="translate(741.063720703125 366.3794250488281) rotate(0 -214.1534423828125 185.7568359375)"><path d="M0 0 C-71.38 61.92, -356.92 309.59, -428.31 371.51 M0 0 C-71.38 61.92, -356.92 309.59, -428.31 371.51" stroke="#000000" stroke-width="1" fill="none"></path></g></g><g stroke-linecap="round"><g transform="translate(747.259765625 397.3908996582031) rotate(0 -79.954345703125 140.36813354492188)"><path d="M0 0 C-26.65 46.79, -133.26 233.95, -159.91 280.74 M0 0 C-26.65 46.79, -133.26 233.95, -159.91 280.74" stroke="#000000" stroke-width="1" fill="none"></path></g></g><g stroke-linecap="round"><g transform="translate(742.5625 318.3469543457031) rotate(0 -34.9736328125 139.27850341796875)"><path d="M0 0 C-11.66 46.43, -58.29 232.13, -69.95 278.56 M0 0 C-11.66 46.43, -58.29 232.13, -69.95 278.56" stroke="#000000" stroke-width="1" fill="none"></path></g></g><g stroke-linecap="round"><g transform="translate(725.155029296875 269.6178894042969) rotate(0 -3.466552734375 126.24603271484375)"><path d="M0 0 C-1.16 42.08, -5.78 210.41, -6.93 252.49 M0 0 C-1.16 42.08, -5.78 210.41, -6.93 252.49" stroke="#000000" stroke-width="1" fill="none"></path></g></g><g stroke-linecap="round"><g transform="translate(741.427490234375 429.0975036621094) rotate(0 -143.8834228515625 153.48605346679688)"><path d="M0 0 C-47.96 51.16, -239.81 255.81, -287.77 306.97 M0 0 C-47.96 51.16, -239.81 255.81, -287.77 306.97" stroke="#000000" stroke-width="1" fill="none"></path></g></g><g stroke-linecap="round"><g transform="translate(329.39990234375 739.8685607910156) rotate(0 133.6844482421875 -35.503936767578125)"><path d="M0 0 C44.56 -11.83, 222.81 -59.17, 267.37 -71.01 M0 0 C44.56 -11.83, 222.81 -59.17, 267.37 -71.01" stroke="#000000" stroke-width="1" fill="none"></path></g></g><g stroke-linecap="round"><g transform="translate(418.917236328125 730.4773254394531) rotate(0 132.34765625 -72.01806640625)"><path d="M0 0 C44.12 -24.01, 220.58 -120.03, 264.7 -144.04 M0 0 C44.12 -24.01, 220.58 -120.03, 264.7 -144.04" stroke="#000000" stroke-width="1" fill="none"></path></g></g><g stroke-linecap="round"><g transform="translate(728.69677734375 393.6730041503906) rotate(0 -69.9892578125 132.85775756835938)"><path d="M0 0 C-23.33 44.29, -116.65 221.43, -139.98 265.72 M0 0 C-23.33 44.29, -116.65 221.43, -139.98 265.72" stroke="#000000" stroke-width="1" fill="none"></path></g></g><g stroke-linecap="round"><g transform="translate(740.97265625 354.5673522949219) rotate(0 -67.5465087890625 145.26324462890625)"><path d="M0 0 C-22.52 48.42, -112.58 242.11, -135.09 290.53 M0 0 C-22.52 48.42, -112.58 242.11, -135.09 290.53" stroke="#000000" stroke-width="1" fill="none"></path></g></g><g stroke-linecap="round"><g transform="translate(732.277099609375 460.8963928222656) rotate(0 -7.157958984375 12.226165771484375)"><path d="M0 0 C-2.39 4.08, -11.93 20.38, -14.32 24.45 M0 0 C-2.39 4.08, -11.93 20.38, -14.32 24.45" stroke="#000000" stroke-width="1" fill="none"></path></g></g><g stroke-linecap="round"><g transform="translate(740.82275390625 440.6679382324219) rotate(0 -106.6231689453125 138.24520874023438)"><path d="M0 0 C-35.54 46.08, -177.71 230.41, -213.25 276.49 M0 0 C-35.54 46.08, -177.71 230.41, -213.25 276.49" stroke="#000000" stroke-width="1" fill="none"></path></g></g><g stroke-linecap="round"><g transform="translate(734.263671875 477.7251281738281) rotate(0 -130.7044677734375 125.76251220703125)"><path d="M0 0 C-43.57 41.92, -217.84 209.6, -261.41 251.53 M0 0 C-43.57 41.92, -217.84 209.6, -261.41 251.53" stroke="#000000" stroke-width="4" fill="none"></path></g></g><g stroke-linecap="round"><g transform="translate(723.57861328125 517.9912414550781) rotate(0 -142.739990234375 111.10992431640625)"><path d="M0 0 C-47.58 37.04, -237.9 185.18, -285.48 222.22 M0 0 C-47.58 37.04, -237.9 185.18, -285.48 222.22" stroke="#000000" stroke-width="4" fill="none"></path></g></g><g stroke-linecap="round"><g transform="translate(361.203125 741.3026428222656) rotate(0 159.987548828125 -74.24688720703125)"><path d="M0 0 C53.33 -24.75, 266.65 -123.74, 319.98 -148.49 M0 0 C53.33 -24.75, 266.65 -123.74, 319.98 -148.49" stroke="#000000" stroke-width="4" fill="none"></path></g></g><g stroke-linecap="round"><g transform="translate(735.0146484375 468.8438415527344) rotate(0 -64.3343505859375 95.553466796875)"><path d="M0 0 C-21.44 31.85, -107.22 159.26, -128.67 191.11 M0 0 C-21.44 31.85, -107.22 159.26, -128.67 191.11" stroke="#000000" stroke-width="4" fill="none"></path></g></g><g stroke-linecap="round"><g transform="translate(396.873046875 741.2877502441406) rotate(0 149.9727783203125 -88.35653686523438)"><path d="M0 0 C49.99 -29.45, 249.95 -147.26, 299.95 -176.71 M0 0 C49.99 -29.45, 249.95 -147.26, 299.95 -176.71" stroke="#000000" stroke-width="4" fill="none"></path></g></g><g stroke-linecap="round"><g transform="translate(741.40771484375 390.4862976074219) rotate(0 -31.3468017578125 101.9051513671875)"><path d="M0 0 C-10.45 33.97, -52.24 169.84, -62.69 203.81 M0 0 C-10.45 33.97, -52.24 169.84, -62.69 203.81" stroke="#000000" stroke-width="4" fill="none"></path></g></g><g stroke-linecap="round"><g transform="translate(730.530029296875 433.4992370605469) rotate(0 -86.8349609375 134.49057006835938)"><path d="M0 0 C-28.94 44.83, -144.72 224.15, -173.67 268.98 M0 0 C-28.94 44.83, -144.72 224.15, -173.67 268.98" stroke="#000000" stroke-width="4" fill="none"></path></g></g><g stroke-linecap="round"><g transform="translate(729.52734375 499.6614685058594) rotate(0 -137.5479736328125 119.71951293945312)"><path d="M0 0 C-45.85 39.91, -229.25 199.53, -275.1 239.44 M0 0 C-45.85 39.91, -229.25 199.53, -275.1 239.44" stroke="#000000" stroke-width="4" fill="none"></path></g></g><g stroke-linecap="round"><g transform="translate(730.503662109375 462.5625305175781) rotate(0 -159.6446533203125 141.727783203125)"><path d="M0 0 C-53.21 47.24, -266.07 236.21, -319.29 283.46 M0 0 C-53.21 47.24, -266.07 236.21, -319.29 283.46" stroke="#000000" stroke-width="4" fill="none"></path></g></g><g stroke-linecap="round"><g transform="translate(703.346923828125 512.2829284667969) rotate(0 -168.244140625 112.41311645507812)"><path d="M0 0 C-56.08 37.47, -280.41 187.36, -336.49 224.83 M0 0 C-56.08 37.47, -280.41 187.36, -336.49 224.83" stroke="#000000" stroke-width="4" fill="none"></path></g></g><g stroke-linecap="round"><g transform="translate(717.179443359375 250.08877563476562) rotate(0 -2.7822265625 144.35400390625)"><path d="M0 0 C-0.93 48.12, -4.64 240.59, -5.56 288.71 M0 0 C-0.93 48.12, -4.64 240.59, -5.56 288.71" stroke="#000000" stroke-width="4" fill="none"></path></g></g><g stroke-linecap="round"><g transform="translate(730.798095703125 301.8297424316406) rotate(0 -40.05078125 155.44064331054688)"><path d="M0 0 C-13.35 51.81, -66.75 259.07, -80.1 310.88 M0 0 C-13.35 51.81, -66.75 259.07, -80.1 310.88" stroke="#000000" stroke-width="4" fill="none"></path></g></g><g stroke-linecap="round"><g transform="translate(744.113525390625 369.4256286621094) rotate(0 -102.1365966796875 170.63992309570312)"><path d="M0 0 C-34.05 56.88, -170.23 284.4, -204.27 341.28 M0 0 C-34.05 56.88, -170.23 284.4, -204.27 341.28" stroke="#000000" stroke-width="4" fill="none"></path></g></g><g stroke-linecap="round"><g transform="translate(724.6298828125 467.0027160644531) rotate(0 -116.8287353515625 132.788330078125)"><path d="M0 0 C-38.94 44.26, -194.71 221.31, -233.66 265.58 M0 0 C-38.94 44.26, -194.71 221.31, -233.66 265.58" stroke="#000000" stroke-width="4" fill="none"></path></g></g><g stroke-linecap="round"><g transform="translate(298.5986328125 731.8584289550781) rotate(0 133.6268310546875 -29.42608642578125)"><path d="M0 0 C44.54 -9.81, 222.71 -49.04, 267.25 -58.85 M0 0 C44.54 -9.81, 222.71 -49.04, 267.25 -58.85" stroke="#000000" stroke-width="4" fill="none"></path></g></g><g stroke-linecap="round"><g transform="translate(271.4892578125 734.2528381347656) rotate(0 180.3089599609375 -44.480224609375)"><path d="M0 0 C60.1 -14.83, 300.51 -74.13, 360.62 -88.96 M0 0 C60.1 -14.83, 300.51 -74.13, 360.62 -88.96" stroke="#000000" stroke-width="4" fill="none"></path></g></g><g stroke-linecap="round"><g transform="translate(267.19873046875 732.2230529785156) rotate(0 204.7581787109375 -70.20791625976562)"><path d="M0 0 C68.25 -23.4, 341.26 -117.01, 409.52 -140.42 M0 0 C68.25 -23.4, 341.26 -117.01, 409.52 -140.42" stroke="#000000" stroke-width="4" fill="none"></path></g></g><g stroke-linecap="round"><g transform="translate(602.68505859375 652.2209777832031) rotate(0 -3.4404296875 3.875274658203125)"><path d="M0 0 C-1.15 1.29, -5.73 6.46, -6.88 7.75 M0 0 C-1.15 1.29, -5.73 6.46, -6.88 7.75" stroke="#000000" stroke-width="4" fill="none"></path></g></g><g stroke-linecap="round"><g transform="translate(519.358154296875 714.4129943847656) rotate(0 5.48876953125 -2.96453857421875)"><path d="M0 0 C1.83 -0.99, 9.15 -4.94, 10.98 -5.93 M0 0 C1.83 -0.99, 9.15 -4.94, 10.98 -5.93" stroke="#000000" stroke-width="4" fill="none"></path></g></g><g stroke-linecap="round"><g transform="translate(686.187744140625 569.2491760253906) rotate(0 -86.36767578125 75.2388916015625)"><path d="M0 0 C-28.79 25.08, -143.95 125.4, -172.74 150.48 M0 0 C-28.79 25.08, -143.95 125.4, -172.74 150.48" stroke="#000000" stroke-width="4" fill="none"></path></g></g><g stroke-linecap="round"><g transform="translate(511.0107421875 716.8552551269531) rotate(0 69.173583984375 -45.307586669921875)"><path d="M0 0 C23.06 -15.1, 115.29 -75.51, 138.35 -90.62 M0 0 C23.06 -15.1, 115.29 -75.51, 138.35 -90.62" stroke="#000000" stroke-width="4" fill="none"></path></g></g><g stroke-linecap="round"><g transform="translate(721.766357421875 510.3880310058594) rotate(0 -56.809814453125 76.34103393554688)"><path d="M0 0 C-18.94 25.45, -94.68 127.24, -113.62 152.68 M0 0 C-18.94 25.45, -94.68 127.24, -113.62 152.68" stroke="#000000" stroke-width="4" fill="none"></path></g></g><g stroke-linecap="round"><g transform="translate(557.58984375 694.7832336425781) rotate(0 72.3311767578125 -71.18118286132812)"><path d="M0 0 C24.11 -23.73, 120.55 -118.64, 144.66 -142.36 M0 0 C24.11 -23.73, 120.55 -118.64, 144.66 -142.36" stroke="#000000" stroke-width="4" fill="none"></path></g></g><g stroke-linecap="round"><g transform="translate(740.787841796875 368.1911315917969) rotate(0 -16.88671875 89.16360473632812)"><path d="M0 0 C-5.63 29.72, -28.14 148.61, -33.77 178.33 M0 0 C-5.63 29.72, -28.14 148.61, -33.77 178.33" stroke="#000000" stroke-width="4" fill="none"></path></g></g><g stroke-linecap="round"><g transform="translate(737.992431640625 316.7353820800781) rotate(0 -24.28466796875 128.95938110351562)"><path d="M0 0 C-8.09 42.99, -40.47 214.93, -48.57 257.92 M0 0 C-8.09 42.99, -40.47 214.93, -48.57 257.92" stroke="#000000" stroke-width="4" fill="none"></path></g></g><g stroke-linecap="round"><g transform="translate(712.96728515625 438.7325744628906) rotate(0 -52.0533447265625 113.44528198242188)"><path d="M0 0 C-17.35 37.82, -86.76 189.08, -104.11 226.89 M0 0 C-17.35 37.82, -86.76 189.08, -104.11 226.89" stroke="#000000" stroke-width="4" fill="none"></path></g></g><g stroke-linecap="round"><g transform="translate(445.17236328125 733.3641662597656) rotate(0 108.9176025390625 -62.418853759765625)"><path d="M0 0 C36.31 -20.81, 181.53 -104.03, 217.84 -124.84 M0 0 C36.31 -20.81, 181.53 -104.03, 217.84 -124.84" stroke="#000000" stroke-width="4" fill="none"></path></g></g><g stroke-linecap="round"><g transform="translate(343.745361328125 733.7677307128906) rotate(0 112.6397705078125 -29.30474853515625)"><path d="M0 0 C37.55 -9.77, 187.73 -48.84, 225.28 -58.61 M0 0 C37.55 -9.77, 187.73 -48.84, 225.28 -58.61" stroke="#000000" stroke-width="4" fill="none"></path></g></g><g stroke-linecap="round"><g transform="translate(660.88818359375 601.6756286621094) rotate(0 -5.04345703125 3.99310302734375)"><path d="M0 0 C-1.68 1.33, -8.41 6.66, -10.09 7.99 M0 0 C-1.68 1.33, -8.41 6.66, -10.09 7.99" stroke="#000000" stroke-width="4" fill="none"></path></g></g><g stroke-linecap="round"><g transform="translate(351.24658203125 733.8392639160156) rotate(0 99.6788330078125 -21.8575439453125)"><path d="M0 0 C33.23 -7.29, 166.13 -36.43, 199.36 -43.72 M0 0 C33.23 -7.29, 166.13 -36.43, 199.36 -43.72" stroke="#000000" stroke-width="4" fill="none"></path></g></g><g stroke-linecap="round"><g transform="translate(610.041259765625 662.2586975097656) rotate(0 -97.228759765625 42.47174072265625)"><path d="M0 0 C-32.41 14.16, -162.05 70.79, -194.46 84.94 M0 0 C-32.41 14.16, -162.05 70.79, -194.46 84.94" stroke="#000000" stroke-width="4" fill="none"></path></g></g><g stroke-linecap="round"><g transform="translate(357.073486328125 748.1129455566406) rotate(0 105.98291015625 -28.22418212890625)"><path d="M0 0 C35.33 -9.41, 176.64 -47.04, 211.97 -56.45 M0 0 C35.33 -9.41, 176.64 -47.04, 211.97 -56.45" stroke="#000000" stroke-width="4" fill="none"></path></g></g><g stroke-linecap="round"><g transform="translate(181.142578125 688.1444396972656) rotate(0 129.2974853515625 11.21722412109375)"><path d="M0 0 C43.1 3.74, 215.5 18.7, 258.59 22.43 M0 0 C43.1 3.74, 215.5 18.7, 258.59 22.43" stroke="#000000" stroke-width="4" fill="none"></path></g></g><g stroke-linecap="round"><g transform="translate(164.153076171875 608.8869934082031) rotate(0 60.0892333984375 62.90057373046875)"><path d="M0 0 C20.03 20.97, 100.15 104.83, 120.18 125.8 M0 0 C20.03 20.97, 100.15 104.83, 120.18 125.8" stroke="#000000" stroke-width="4" fill="none"></path></g></g><g stroke-linecap="round"><g transform="translate(212.3251953125 599.4309997558594) rotate(0 62.4361572265625 70.67752075195312)"><path d="M0 0 C20.81 23.56, 104.06 117.8, 124.87 141.36 M0 0 C20.81 23.56, 104.06 117.8, 124.87 141.36" stroke="#000000" stroke-width="4" fill="none"></path></g></g><g stroke-linecap="round"><g transform="translate(251.137451171875 581.8924255371094) rotate(0 77.2122802734375 82.83383178710938)"><path d="M0 0 C25.74 27.61, 128.69 138.06, 154.42 165.67 M0 0 C25.74 27.61, 128.69 138.06, 154.42 165.67" stroke="#000000" stroke-width="4" fill="none"></path></g></g><g stroke-linecap="round"><g transform="translate(312.8251953125 571.2292175292969) rotate(0 73.346923828125 84.42050170898438)"><path d="M0 0 C24.45 28.14, 122.24 140.7, 146.69 168.84 M0 0 C24.45 28.14, 122.24 140.7, 146.69 168.84" stroke="#000000" stroke-width="4" fill="none"></path></g></g><g stroke-linecap="round"><g transform="translate(349.154296875 555.7456970214844) rotate(0 77.02734375 88.29525756835938)"><path d="M0 0 C25.68 29.43, 128.38 147.16, 154.05 176.59 M0 0 C25.68 29.43, 128.38 147.16, 154.05 176.59" stroke="#000000" stroke-width="4" fill="none"></path></g></g><g stroke-linecap="round"><g transform="translate(401.12255859375 526.0298767089844) rotate(0 76.367919921875 87.5848388671875)"><path d="M0 0 C25.46 29.19, 127.28 145.97, 152.74 175.17 M0 0 C25.46 29.19, 127.28 145.97, 152.74 175.17" stroke="#000000" stroke-width="4" fill="none"></path></g></g><g stroke-linecap="round"><g transform="translate(436.92919921875 506.2074279785156) rotate(0 75.7884521484375 86.31890869140625)"><path d="M0 0 C25.26 28.77, 126.31 143.86, 151.58 172.64 M0 0 C25.26 28.77, 126.31 143.86, 151.58 172.64" stroke="#000000" stroke-width="4" fill="none"></path></g></g><g stroke-linecap="round"><g transform="translate(468.924560546875 490.8744201660156) rotate(0 76.3675537109375 81.22979736328125)"><path d="M0 0 C25.46 27.08, 127.28 135.38, 152.74 162.46 M0 0 C25.46 27.08, 127.28 135.38, 152.74 162.46" stroke="#000000" stroke-width="4" fill="none"></path></g></g><g stroke-linecap="round"><g transform="translate(504.82080078125 474.3853454589844) rotate(0 71.8792724609375 78.29171752929688)"><path d="M0 0 C23.96 26.1, 119.8 130.49, 143.76 156.58 M0 0 C23.96 26.1, 119.8 130.49, 143.76 156.58" stroke="#000000" stroke-width="4" fill="none"></path></g></g><g stroke-linecap="round"><g transform="translate(540.768310546875 447.6867370605469) rotate(0 67.98974609375 74.44613647460938)"><path d="M0 0 C22.66 24.82, 113.32 124.08, 135.98 148.89 M0 0 C22.66 24.82, 113.32 124.08, 135.98 148.89" stroke="#000000" stroke-width="4" fill="none"></path></g></g><g stroke-linecap="round"><g transform="translate(563.93603515625 421.7865905761719) rotate(0 67.2083740234375 66.12210083007812)"><path d="M0 0 C22.4 22.04, 112.01 110.2, 134.42 132.24 M0 0 C22.4 22.04, 112.01 110.2, 134.42 132.24" stroke="#000000" stroke-width="4" fill="none"></path></g></g><g stroke-linecap="round"><g transform="translate(599 376.9316101074219) rotate(0 61.1505126953125 66.32467651367188)"><path d="M0 0 C20.38 22.11, 101.92 110.54, 122.3 132.65 M0 0 C20.38 22.11, 101.92 110.54, 122.3 132.65" stroke="#000000" stroke-width="4" fill="none"></path></g></g><g stroke-linecap="round"><g transform="translate(625.380126953125 347.5580139160156) rotate(0 58.4111328125 56.8668212890625)"><path d="M0 0 C19.47 18.96, 97.35 94.78, 116.82 113.73 M0 0 C19.47 18.96, 97.35 94.78, 116.82 113.73" stroke="#000000" stroke-width="4" fill="none"></path></g></g><g stroke-linecap="round"><g transform="translate(631.565673828125 296.9085998535156) rotate(0 57.861328125 50.883026123046875)"><path d="M0 0 C19.29 16.96, 96.44 84.81, 115.72 101.77 M0 0 C19.29 16.96, 96.44 84.81, 115.72 101.77" stroke="#000000" stroke-width="4" fill="none"></path></g></g><g stroke-linecap="round"><g transform="translate(646.8583984375 264.7814025878906) rotate(0 50.701171875 45.9678955078125)"><path d="M0 0 C16.9 15.32, 84.5 76.61, 101.4 91.94 M0 0 C16.9 15.32, 84.5 76.61, 101.4 91.94" stroke="#000000" stroke-width="4" fill="none"></path></g></g><g stroke-linecap="round"><g transform="translate(671.020751953125 222.68045043945312) rotate(0 32.490234375 33.6539306640625)"><path d="M0 0 C10.83 11.22, 54.15 56.09, 64.98 67.31 M0 0 C10.83 11.22, 54.15 56.09, 64.98 67.31" stroke="#000000" stroke-width="4" fill="none"></path></g></g><g stroke-linecap="round"><g transform="translate(680.73388671875 188.28677368164062) rotate(0 20.0731201171875 24.575469970703125)"><path d="M0 0 C6.69 8.19, 33.46 40.96, 40.15 49.15 M0 0 C6.69 8.19, 33.46 40.96, 40.15 49.15" stroke="#000000" stroke-width="4" fill="none"></path></g></g><g stroke-linecap="round"><g transform="translate(135.03955078125 621.6355895996094) rotate(0 38.8477783203125 42.555877685546875)"><path d="M0 0 C12.95 14.19, 64.75 70.93, 77.7 85.11 M0 0 C12.95 14.19, 64.75 70.93, 77.7 85.11" stroke="#000000" stroke-width="4" fill="none"></path></g></g><g stroke-linecap="round"><g transform="translate(380.46630859375 550.1976623535156) rotate(0 78.7030029296875 80.61260986328125)"><path d="M0 0 C26.23 26.87, 131.17 134.35, 157.41 161.23 M0 0 C26.23 26.87, 131.17 134.35, 157.41 161.23" stroke="#000000" stroke-width="4" fill="none"></path></g></g><g stroke-linecap="round"><g transform="translate(693.362060546875 194.42269897460938) rotate(0 -3.90625 138.88961791992188)"><path d="M0 0 C-1.3 46.3, -6.51 231.48, -7.81 277.78 M0 0 C-1.3 46.3, -6.51 231.48, -7.81 277.78" stroke="#000000" stroke-width="4" fill="none"></path></g></g><g stroke-linecap="round"><g transform="translate(717.616943359375 265.0846252441406) rotate(0 -40.1220703125 142.98092651367188)"><path d="M0 0 C-13.37 47.66, -66.87 238.3, -80.24 285.96 M0 0 C-13.37 47.66, -66.87 238.3, -80.24 285.96" stroke="#000000" stroke-width="4" fill="none"></path></g></g><g stroke-linecap="round"><g transform="translate(722.303466796875 322.6759948730469) rotate(0 -84.946044921875 165.11111450195312)"><path d="M0 0 C-28.32 55.04, -141.58 275.19, -169.89 330.22 M0 0 C-28.32 55.04, -141.58 275.19, -169.89 330.22" stroke="#000000" stroke-width="4" fill="none"></path></g></g><g stroke-linecap="round"><g transform="translate(655.80859375 435.1770324707031) rotate(0 -112.4693603515625 122.5341796875)"><path d="M0 0 C-37.49 40.84, -187.45 204.22, -224.94 245.07 M0 0 C-37.49 40.84, -187.45 204.22, -224.94 245.07" stroke="#000000" stroke-width="4" fill="none"></path></g></g><g stroke-linecap="round"><g transform="translate(647.357666015625 416.9669494628906) rotate(0 -177.243408203125 159.73956298828125)"><path d="M0 0 C-59.08 53.25, -295.41 266.23, -354.49 319.48 M0 0 C-59.08 53.25, -295.41 266.23, -354.49 319.48" stroke="#000000" stroke-width="4" fill="none"></path></g></g><g stroke-linecap="round"><g transform="translate(685.108154296875 250.59194946289062) rotate(0 -48.0234375 182.94354248046875)"><path d="M0 0 C-16.01 60.98, -80.04 304.91, -96.05 365.89 M0 0 C-16.01 60.98, -80.04 304.91, -96.05 365.89" stroke="#000000" stroke-width="4" fill="none"></path></g></g><g stroke-linecap="round"><g transform="translate(439.42822265625 597.8694763183594) rotate(0 -6.8289794921875 2.297119140625)"><path d="M0 0 C-2.28 0.77, -11.38 3.83, -13.66 4.59 M0 0 C-2.28 0.77, -11.38 3.83, -13.66 4.59" stroke="#000000" stroke-width="4" fill="none"></path></g></g><g stroke-linecap="round"><g transform="translate(153.06982421875 664.7415466308594) rotate(0 175.448974609375 -31.8883056640625)"><path d="M0 0 C58.48 -10.63, 292.41 -53.15, 350.9 -63.78 M0 0 C58.48 -10.63, 292.41 -53.15, 350.9 -63.78" stroke="#000000" stroke-width="4" fill="none"></path></g></g><g stroke-linecap="round"><g transform="translate(608.52587890625 458.8507385253906) rotate(0 -173.4327392578125 129.89599609375)"><path d="M0 0 C-57.81 43.3, -289.05 216.49, -346.87 259.79 M0 0 C-57.81 43.3, -289.05 216.49, -346.87 259.79" stroke="#000000" stroke-width="4" fill="none"></path></g></g><g stroke-linecap="round"><g transform="translate(201.75732421875 633.2783508300781) rotate(0 130.4041748046875 35.137939453125)"><path d="M0 0 C43.47 11.71, 217.34 58.56, 260.81 70.28 M0 0 C43.47 11.71, 217.34 58.56, 260.81 70.28" stroke="#000000" stroke-width="4" fill="none"></path></g></g><g stroke-linecap="round"><g transform="translate(473.27294921875 515.5128479003906) rotate(0 -112.14404296875 98.05743408203125)"><path d="M0 0 C-37.38 32.69, -186.91 163.43, -224.29 196.11 M0 0 C-37.38 32.69, -186.91 163.43, -224.29 196.11" stroke="#000000" stroke-width="4" fill="none"></path></g></g><g stroke-linecap="round"><g transform="translate(191.978515625 655.3751525878906) rotate(0 15.253662109375 1.4527587890625)"><path d="M0 0 C5.08 0.48, 25.42 2.42, 30.51 2.91 M0 0 C5.08 0.48, 25.42 2.42, 30.51 2.91" stroke="#000000" stroke-width="4" fill="none"></path></g></g><g stroke-linecap="round"><g transform="translate(309.780517578125 631.1365051269531) rotate(0 161.855712890625 -38.430633544921875)"><path d="M0 0 C53.95 -12.81, 269.76 -64.05, 323.71 -76.86 M0 0 C53.95 -12.81, 269.76 -64.05, 323.71 -76.86" stroke="#000000" stroke-width="4" fill="none"></path></g></g><g stroke-linecap="round"><g transform="translate(697.119384765625 280.1329040527344) rotate(0 -96.6177978515625 197.64913940429688)"><path d="M0 0 C-32.21 65.88, -161.03 329.42, -193.24 395.3 M0 0 C-32.21 65.88, -161.03 329.42, -193.24 395.3" stroke="#000000" stroke-width="4" fill="none"></path></g></g><g stroke-linecap="round"><g transform="translate(503.49365234375 541.4844055175781) rotate(0 92.5467529296875 -22.8310546875)"><path d="M0 0 C30.85 -7.61, 154.24 -38.05, 185.09 -45.66 M0 0 C30.85 -7.61, 154.24 -38.05, 185.09 -45.66" stroke="#000000" stroke-width="4" fill="none"></path></g></g><g stroke-linecap="round"><g transform="translate(600.683349609375 414.3721008300781) rotate(0 -62.13720703125 147.59320068359375)"><path d="M0 0 C-20.71 49.2, -103.56 245.99, -124.27 295.19 M0 0 C-20.71 49.2, -103.56 245.99, -124.27 295.19" stroke="#000000" stroke-width="4" fill="none"></path></g></g><g stroke-linecap="round"><g transform="translate(190.740966796875 666.0013732910156) rotate(0 143.700439453125 2.806884765625)"><path d="M0 0 C47.9 0.94, 239.5 4.68, 287.4 5.61 M0 0 C47.9 0.94, 239.5 4.68, 287.4 5.61" stroke="#000000" stroke-width="4" fill="none"></path></g></g><g stroke-linecap="round"><g transform="translate(272.04931640625 613.2218322753906) rotate(0 108.611328125 20.3094482421875)"><path d="M0 0 C36.2 6.77, 181.02 33.85, 217.22 40.62 M0 0 C36.2 6.77, 181.02 33.85, 217.22 40.62" stroke="#000000" stroke-width="4" fill="none"></path></g></g><g stroke-linecap="round"><g transform="translate(705.07421875 247.91641235351562) rotate(0 -43.4493408203125 160.05706787109375)"><path d="M0 0 C-14.48 53.35, -72.42 266.76, -86.9 320.11 M0 0 C-14.48 53.35, -72.42 266.76, -86.9 320.11" stroke="#000000" stroke-width="1" fill="none"></path></g></g><g stroke-linecap="round"><g transform="translate(706.681640625 364.3398742675781) rotate(0 -112.512451171875 127.08203125)"><path d="M0 0 C-37.5 42.36, -187.52 211.8, -225.02 254.16 M0 0 C-37.5 42.36, -187.52 211.8, -225.02 254.16" stroke="#000000" stroke-width="1" fill="none"></path></g></g><g stroke-linecap="round"><g transform="translate(323.162109375 624.0831604003906) rotate(0 163.7237548828125 -17.492034912109375)"><path d="M0 0 C54.57 -5.83, 272.87 -29.15, 327.45 -34.98 M0 0 C54.57 -5.83, 272.87 -29.15, 327.45 -34.98" stroke="#000000" stroke-width="1" fill="none"></path></g></g><g stroke-linecap="round"><g transform="translate(522.501220703125 498.4624938964844) rotate(0 -89.483154296875 105.61294555664062)"><path d="M0 0 C-29.83 35.2, -149.14 176.02, -178.97 211.23 M0 0 C-29.83 35.2, -149.14 176.02, -178.97 211.23" stroke="#000000" stroke-width="1" fill="none"></path></g></g><g stroke-linecap="round"><g transform="translate(195.22509765625 689.9878234863281) rotate(0 144.4849853515625 -12.687255859375)"><path d="M0 0 C48.16 -4.23, 240.81 -21.15, 288.97 -25.37 M0 0 C48.16 -4.23, 240.81 -21.15, 288.97 -25.37" stroke="#000000" stroke-width="1" fill="none"></path></g></g><g stroke-linecap="round"><g transform="translate(218.5556640625 608.7907409667969) rotate(0 141.5765380859375 34.257080078125)"><path d="M0 0 C47.19 11.42, 235.96 57.1, 283.15 68.51 M0 0 C47.19 11.42, 235.96 57.1, 283.15 68.51" stroke="#000000" stroke-width="1" fill="none"></path></g></g><g stroke-linecap="round"><g transform="translate(552.734130859375 537.7026062011719) rotate(0 -68.7113037109375 85.76937866210938)"><path d="M0 0 C-22.9 28.59, -114.52 142.95, -137.42 171.54 M0 0 C-22.9 28.59, -114.52 142.95, -137.42 171.54" stroke="#000000" stroke-width="1" fill="none"></path></g></g><g stroke-linecap="round"><g transform="translate(601.783935546875 495.0970764160156) rotate(0 -17.564208984375 85.65249633789062)"><path d="M0 0 C-5.85 28.55, -29.27 142.75, -35.13 171.3 M0 0 C-5.85 28.55, -29.27 142.75, -35.13 171.3" stroke="#000000" stroke-width="1" fill="none"></path></g></g><g stroke-linecap="round"><g transform="translate(574.863037109375 466.8066711425781) rotate(0 -16.715087890625 93.6151123046875)"><path d="M0 0 C-5.57 31.21, -27.86 156.03, -33.43 187.23 M0 0 C-5.57 31.21, -27.86 156.03, -33.43 187.23" stroke="#000000" stroke-width="1" fill="none"></path></g></g><g stroke-linecap="round"><g transform="translate(130.15673828125 626.2693176269531) rotate(0 119.5904541015625 25.5850830078125)"><path d="M0 0 C39.86 8.53, 199.32 42.64, 239.18 51.17 M0 0 C39.86 8.53, 199.32 42.64, 239.18 51.17" stroke="#000000" stroke-width="1" fill="none"></path></g></g><g stroke-linecap="round"><g transform="translate(235.95751953125 608.7810363769531) rotate(0 49.0054931640625 62.91796875)"><path d="M0 0 C16.34 20.97, 81.68 104.86, 98.01 125.84 M0 0 C16.34 20.97, 81.68 104.86, 98.01 125.84" stroke="#000000" stroke-width="1" fill="none"></path></g></g><g stroke-linecap="round"><g transform="translate(336.7939453125 576.3648986816406) rotate(0 110.023681640625 36.603668212890625)"><path d="M0 0 C36.67 12.2, 183.37 61.01, 220.05 73.21 M0 0 C36.67 12.2, 183.37 61.01, 220.05 73.21" stroke="#000000" stroke-width="1" fill="none"></path></g></g><g stroke-linecap="round"><g transform="translate(473.802490234375 489.4030456542969) rotate(0 33.6204833984375 69.527099609375)"><path d="M0 0 C11.21 23.18, 56.03 115.88, 67.24 139.05 M0 0 C11.21 23.18, 56.03 115.88, 67.24 139.05" stroke="#000000" stroke-width="1" fill="none"></path></g></g><g stroke-linecap="round"><g transform="translate(646.57177734375 284.6604919433594) rotate(0 -3.600341796875 122.83889770507812)"><path d="M0 0 C-1.2 40.95, -6 204.73, -7.2 245.68 M0 0 C-1.2 40.95, -6 204.73, -7.2 245.68" stroke="#000000" stroke-width="1" fill="none"></path></g></g><g stroke-linecap="round"><g transform="translate(664.062255859375 204.71530151367188) rotate(0 1.5029296875 149.8111572265625)"><path d="M0 0 C0.5 49.94, 2.5 249.69, 3.01 299.62 M0 0 C0.5 49.94, 2.5 249.69, 3.01 299.62" stroke="#000000" stroke-width="1" fill="none"></path></g></g><g stroke-linecap="round"><g transform="translate(649.348388671875 154.76742553710938) rotate(0 20.2435302734375 129.84957885742188)"><path d="M0 0 C6.75 43.28, 33.74 216.42, 40.49 259.7 M0 0 C6.75 43.28, 33.74 216.42, 40.49 259.7" stroke="#000000" stroke-width="1" fill="none"></path></g></g><g stroke-linecap="round"><g transform="translate(658.39013671875 151.73605346679688) rotate(0 29.7269287109375 122.3863525390625)"><path d="M0 0 C9.91 40.8, 49.54 203.98, 59.45 244.77 M0 0 C9.91 40.8, 49.54 203.98, 59.45 244.77" stroke="#000000" stroke-width="1" fill="none"></path></g></g><g stroke-linecap="round"><g transform="translate(663.8212890625 162.24057006835938) rotate(0 14.673095703125 136.29592895507812)"><path d="M0 0 C4.89 45.43, 24.46 227.16, 29.35 272.59 M0 0 C4.89 45.43, 24.46 227.16, 29.35 272.59" stroke="#000000" stroke-width="1" fill="none"></path></g></g><g stroke-linecap="round"><g transform="translate(667.8720703125 451.1964416503906) rotate(0 -62.4481201171875 83.83261108398438)"><path d="M0 0 C-20.82 27.94, -104.08 139.72, -124.9 167.67 M0 0 C-20.82 27.94, -104.08 139.72, -124.9 167.67" stroke="#000000" stroke-width="1" fill="none"></path></g></g><g stroke-linecap="round"><g transform="translate(624.230224609375 481.8359069824219) rotate(0 -70.21826171875 81.11782836914062)"><path d="M0 0 C-23.41 27.04, -117.03 135.2, -140.44 162.24 M0 0 C-23.41 27.04, -117.03 135.2, -140.44 162.24" stroke="#000000" stroke-width="1" fill="none"></path></g></g><g stroke-linecap="round"><g transform="translate(606.185791015625 595.1079406738281) rotate(0 -5.0484619140625 3.710052490234375)"><path d="M0 0 C-1.68 1.24, -8.41 6.18, -10.1 7.42 M0 0 C-1.68 1.24, -8.41 6.18, -10.1 7.42" stroke="#000000" stroke-width="1" fill="none"></path></g></g><g stroke-linecap="round"><g transform="translate(536.816162109375 637.3017883300781) rotate(0 -129.72802734375 24.3909912109375)"><path d="M0 0 C-43.24 8.13, -216.21 40.65, -259.46 48.78 M0 0 C-43.24 8.13, -216.21 40.65, -259.46 48.78" stroke="#000000" stroke-width="1" fill="none"></path></g></g><g stroke-linecap="round"><g transform="translate(502.75341796875 611.2850036621094) rotate(0 -137.2728271484375 48.167327880859375)"><path d="M0 0 C-45.76 16.06, -228.79 80.28, -274.55 96.33 M0 0 C-45.76 16.06, -228.79 80.28, -274.55 96.33" stroke="#000000" stroke-width="1" fill="none"></path></g></g><g stroke-linecap="round"><g transform="translate(182.088134765625 661.6611022949219) rotate(0 139.0181884765625 10.183868408203125)"><path d="M0 0 C46.34 3.39, 231.7 16.97, 278.04 20.37 M0 0 C46.34 3.39, 231.7 16.97, 278.04 20.37" stroke="#000000" stroke-width="1" fill="none"></path></g></g><g stroke-linecap="round"><g transform="translate(460.236572265625 600.1044006347656) rotate(0 -133.39404296875 46.30401611328125)"><path d="M0 0 C-44.46 15.43, -222.32 77.17, -266.79 92.61 M0 0 C-44.46 15.43, -222.32 77.17, -266.79 92.61" stroke="#000000" stroke-width="1" fill="none"></path></g></g><g stroke-linecap="round"><g transform="translate(248.142822265625 714.3054504394531) rotate(0 166.0545654296875 -44.5379638671875)"><path d="M0 0 C55.35 -14.85, 276.76 -74.23, 332.11 -89.08 M0 0 C55.35 -14.85, 276.76 -74.23, 332.11 -89.08" stroke="#000000" stroke-width="1" fill="none"></path></g></g><g stroke-linecap="round"><g transform="translate(646.2587890625 137.37960815429688) rotate(0 35.111328125 69.38735961914062)"><path d="M0 0 C11.7 23.13, 58.52 115.65, 70.22 138.77 M0 0 C11.7 23.13, 58.52 115.65, 70.22 138.77" stroke="#000000" stroke-width="1" fill="none"></path></g></g><g stroke-linecap="round"><g transform="translate(676.1318359375 166.53713989257812) rotate(0 27.905517578125 65.63882446289062)"><path d="M0 0 C9.3 21.88, 46.51 109.4, 55.81 131.28 M0 0 C9.3 21.88, 46.51 109.4, 55.81 131.28" stroke="#000000" stroke-width="1" fill="none"></path></g></g><g stroke-linecap="round"><g transform="translate(123.647705078125 623.6560363769531) rotate(0 67.549072265625 48.9876708984375)"><path d="M0 0 C22.52 16.33, 112.58 81.65, 135.1 97.98 M0 0 C22.52 16.33, 112.58 81.65, 135.1 97.98" stroke="#000000" stroke-width="1" fill="none"></path></g></g><g stroke-linecap="round"><g transform="translate(133.7724609375 643.4094543457031) rotate(0 95.6246337890625 11.14434814453125)"><path d="M0 0 C31.87 3.71, 159.37 18.57, 191.25 22.29 M0 0 C31.87 3.71, 159.37 18.57, 191.25 22.29" stroke="#000000" stroke-width="1" fill="none"></path></g></g><g stroke-linecap="round"><g transform="translate(248.904541015625 644.3006896972656) rotate(0 74.6199951171875 15.697174072265625)"><path d="M0 0 C24.87 5.23, 124.37 26.16, 149.24 31.39 M0 0 C24.87 5.23, 124.37 26.16, 149.24 31.39" stroke="#000000" stroke-width="1" fill="none"></path></g></g><g stroke-linecap="round"><g transform="translate(306.3349609375 628.1842346191406) rotate(0 138.3251953125 16.59356689453125)"><path d="M0 0 C46.11 5.53, 230.54 27.66, 276.65 33.19 M0 0 C46.11 5.53, 230.54 27.66, 276.65 33.19" stroke="#000000" stroke-width="1" fill="none"></path></g></g><g stroke-linecap="round"><g transform="translate(696.203125 337.5345764160156) rotate(0 -135.08203125 132.6005859375)"><path d="M0 0 C-45.03 44.2, -225.14 221, -270.16 265.2 M0 0 C-45.03 44.2, -225.14 221, -270.16 265.2" stroke="#000000" stroke-width="1" fill="none"></path></g></g><g transform="translate(82.50368855794204 269.9965362548828) rotate(0 290.01181437174546 117.57235717773449)"><text x="0" y="164.14471435546898" font-family="Virgil, Segoe UI Emoji" font-size="188.11577148437559px" fill="#000000" text-anchor="start" style="white-space: pre;" direction="ltr">Scrawl</text></g></svg>